<mxfile host="Electron" agent="Mozilla/5.0 (X11; Linux x86_64) AppleWebKit/537.36 (KHTML, like Gecko) draw.io/24.7.17 Chrome/128.0.6613.36 Electron/32.0.1 Safari/537.36" version="24.7.17">
  <diagram name="Page-1" id="gg2J8W1I62cFZOVw_WUO">
    <mxGraphModel dx="1839" dy="566" grid="1" gridSize="10" guides="1" tooltips="1" connect="1" arrows="1" fold="1" page="1" pageScale="1" pageWidth="850" pageHeight="1100" math="0" shadow="0">
      <root>
        <mxCell id="0" />
        <mxCell id="1" parent="0" />
        <mxCell id="SXM753S00AvM5NpmY9E--2" value="&lt;font color=&quot;#cc0000&quot;&gt;LLM User&lt;/font&gt;" style="shape=umlActor;verticalLabelPosition=bottom;verticalAlign=top;html=1;outlineConnect=0;fillColor=#a20025;fontColor=#ffffff;strokeColor=#6F0000;" vertex="1" parent="1">
          <mxGeometry x="20" y="330" width="30" height="60" as="geometry" />
        </mxCell>
        <mxCell id="SXM753S00AvM5NpmY9E--3" value="&lt;font color=&quot;#000066&quot;&gt;LLM Moderator&lt;/font&gt;" style="shape=umlActor;verticalLabelPosition=bottom;verticalAlign=top;html=1;outlineConnect=0;fillColor=#0050ef;fontColor=#ffffff;strokeColor=#001DBC;" vertex="1" parent="1">
          <mxGeometry x="180" y="120" width="30" height="60" as="geometry" />
        </mxCell>
        <mxCell id="SXM753S00AvM5NpmY9E--4" value="&lt;font color=&quot;#cc0000&quot;&gt;LLM User&lt;/font&gt;" style="shape=umlActor;verticalLabelPosition=bottom;verticalAlign=top;html=1;outlineConnect=0;fillColor=#a20025;fontColor=#ffffff;strokeColor=#6F0000;" vertex="1" parent="1">
          <mxGeometry x="180" y="240" width="30" height="60" as="geometry" />
        </mxCell>
        <mxCell id="SXM753S00AvM5NpmY9E--5" value="&lt;font color=&quot;#cc0000&quot;&gt;LLM User&lt;/font&gt;" style="shape=umlActor;verticalLabelPosition=bottom;verticalAlign=top;html=1;outlineConnect=0;fillColor=#a20025;fontColor=#ffffff;strokeColor=#6F0000;" vertex="1" parent="1">
          <mxGeometry x="320" y="330" width="30" height="60" as="geometry" />
        </mxCell>
        <mxCell id="SXM753S00AvM5NpmY9E--8" value="&lt;font color=&quot;#cc0000&quot; style=&quot;font-size: 45px;&quot;&gt;&lt;b&gt;...&lt;/b&gt;&lt;/font&gt;" style="text;html=1;align=center;verticalAlign=middle;whiteSpace=wrap;rounded=0;" vertex="1" parent="1">
          <mxGeometry x="175" y="450" width="40" height="30" as="geometry" />
        </mxCell>
        <mxCell id="SXM753S00AvM5NpmY9E--11" value="" style="endArrow=classic;html=1;rounded=0;" edge="1" parent="1" source="SXM753S00AvM5NpmY9E--2" target="SXM753S00AvM5NpmY9E--4">
          <mxGeometry width="50" height="50" relative="1" as="geometry">
            <mxPoint x="400" y="450" as="sourcePoint" />
            <mxPoint x="450" y="400" as="targetPoint" />
          </mxGeometry>
        </mxCell>
        <mxCell id="SXM753S00AvM5NpmY9E--12" value="" style="endArrow=classic;html=1;rounded=0;" edge="1" parent="1" source="SXM753S00AvM5NpmY9E--4" target="SXM753S00AvM5NpmY9E--5">
          <mxGeometry width="50" height="50" relative="1" as="geometry">
            <mxPoint x="250" y="510" as="sourcePoint" />
            <mxPoint x="190" y="288" as="targetPoint" />
          </mxGeometry>
        </mxCell>
        <mxCell id="SXM753S00AvM5NpmY9E--13" value="" style="endArrow=classic;html=1;rounded=0;" edge="1" parent="1" source="SXM753S00AvM5NpmY9E--5" target="SXM753S00AvM5NpmY9E--8">
          <mxGeometry width="50" height="50" relative="1" as="geometry">
            <mxPoint x="70" y="372" as="sourcePoint" />
            <mxPoint x="200" y="298" as="targetPoint" />
          </mxGeometry>
        </mxCell>
        <mxCell id="SXM753S00AvM5NpmY9E--14" value="" style="endArrow=classic;html=1;rounded=0;" edge="1" parent="1" source="SXM753S00AvM5NpmY9E--8" target="SXM753S00AvM5NpmY9E--2">
          <mxGeometry width="50" height="50" relative="1" as="geometry">
            <mxPoint x="330" y="381" as="sourcePoint" />
            <mxPoint x="225" y="460" as="targetPoint" />
          </mxGeometry>
        </mxCell>
        <mxCell id="SXM753S00AvM5NpmY9E--15" value="" style="curved=1;endArrow=classic;html=1;rounded=0;fillColor=#dae8fc;strokeColor=#6c8ebf;" edge="1" parent="1" source="SXM753S00AvM5NpmY9E--3">
          <mxGeometry width="50" height="50" relative="1" as="geometry">
            <mxPoint x="310" y="370" as="sourcePoint" />
            <mxPoint x="110" y="320" as="targetPoint" />
            <Array as="points">
              <mxPoint x="110" y="180" />
              <mxPoint x="90" y="250" />
            </Array>
          </mxGeometry>
        </mxCell>
        <mxCell id="SXM753S00AvM5NpmY9E--16" value="" style="curved=1;endArrow=classic;html=1;rounded=0;fillColor=#dae8fc;strokeColor=#6c8ebf;" edge="1" parent="1" source="SXM753S00AvM5NpmY9E--3">
          <mxGeometry width="50" height="50" relative="1" as="geometry">
            <mxPoint x="360" y="187.5" as="sourcePoint" />
            <mxPoint x="270" y="320" as="targetPoint" />
            <Array as="points">
              <mxPoint x="290" y="212.5" />
              <mxPoint x="270" y="282.5" />
            </Array>
          </mxGeometry>
        </mxCell>
        <mxCell id="SXM753S00AvM5NpmY9E--17" value="" style="curved=1;endArrow=classic;html=1;rounded=0;fillColor=#dae8fc;strokeColor=#6c8ebf;" edge="1" parent="1" source="SXM753S00AvM5NpmY9E--3">
          <mxGeometry width="50" height="50" relative="1" as="geometry">
            <mxPoint x="200" y="175" as="sourcePoint" />
            <mxPoint x="250" y="420" as="targetPoint" />
            <Array as="points">
              <mxPoint x="410" y="190" />
              <mxPoint x="540" y="420" />
            </Array>
          </mxGeometry>
        </mxCell>
        <mxCell id="SXM753S00AvM5NpmY9E--18" value="" style="curved=1;endArrow=classic;html=1;rounded=0;fillColor=#dae8fc;strokeColor=#6c8ebf;" edge="1" parent="1" source="SXM753S00AvM5NpmY9E--3">
          <mxGeometry width="50" height="50" relative="1" as="geometry">
            <mxPoint x="210" y="185" as="sourcePoint" />
            <mxPoint x="110" y="410" as="targetPoint" />
            <Array as="points">
              <mxPoint x="-50" y="170" />
              <mxPoint x="-50" y="440" />
            </Array>
          </mxGeometry>
        </mxCell>
        <mxCell id="SXM753S00AvM5NpmY9E--19" value="&lt;font color=&quot;#cc0000&quot;&gt;&lt;i&gt;xN&lt;/i&gt; LLM Users&lt;/font&gt;" style="text;html=1;align=center;verticalAlign=middle;whiteSpace=wrap;rounded=0;" vertex="1" parent="1">
          <mxGeometry x="165" y="420" width="60" height="30" as="geometry" />
        </mxCell>
        <mxCell id="SXM753S00AvM5NpmY9E--20" value="&lt;font color=&quot;#cc0000&quot;&gt;LLM User&lt;/font&gt;" style="shape=umlActor;verticalLabelPosition=bottom;verticalAlign=top;html=1;outlineConnect=0;fillColor=#a20025;fontColor=#ffffff;strokeColor=#6F0000;" vertex="1" parent="1">
          <mxGeometry x="590" y="340" width="30" height="60" as="geometry" />
        </mxCell>
        <mxCell id="SXM753S00AvM5NpmY9E--21" value="&lt;font color=&quot;#000066&quot;&gt;LLM Moderator&lt;/font&gt;" style="shape=umlActor;verticalLabelPosition=bottom;verticalAlign=top;html=1;outlineConnect=0;fillColor=#0050ef;fontColor=#ffffff;strokeColor=#001DBC;" vertex="1" parent="1">
          <mxGeometry x="750" y="130" width="30" height="60" as="geometry" />
        </mxCell>
        <mxCell id="SXM753S00AvM5NpmY9E--22" value="&lt;font color=&quot;#cc0000&quot;&gt;LLM User&lt;/font&gt;" style="shape=umlActor;verticalLabelPosition=bottom;verticalAlign=top;html=1;outlineConnect=0;fillColor=#a20025;fontColor=#ffffff;strokeColor=#6F0000;" vertex="1" parent="1">
          <mxGeometry x="750" y="250" width="30" height="60" as="geometry" />
        </mxCell>
        <mxCell id="SXM753S00AvM5NpmY9E--25" value="" style="endArrow=classic;html=1;rounded=0;" edge="1" parent="1" source="SXM753S00AvM5NpmY9E--20" target="SXM753S00AvM5NpmY9E--22">
          <mxGeometry width="50" height="50" relative="1" as="geometry">
            <mxPoint x="970" y="460" as="sourcePoint" />
            <mxPoint x="1020" y="410" as="targetPoint" />
          </mxGeometry>
        </mxCell>
        <mxCell id="SXM753S00AvM5NpmY9E--44" value="p chance" style="edgeLabel;html=1;align=center;verticalAlign=middle;resizable=0;points=[];" vertex="1" connectable="0" parent="SXM753S00AvM5NpmY9E--25">
          <mxGeometry x="-0.3587" relative="1" as="geometry">
            <mxPoint as="offset" />
          </mxGeometry>
        </mxCell>
        <mxCell id="SXM753S00AvM5NpmY9E--27" value="" style="endArrow=classic;html=1;rounded=0;" edge="1" parent="1" source="SXM753S00AvM5NpmY9E--22">
          <mxGeometry width="50" height="50" relative="1" as="geometry">
            <mxPoint x="890" y="381.25" as="sourcePoint" />
            <mxPoint x="765" y="430" as="targetPoint" />
          </mxGeometry>
        </mxCell>
        <mxCell id="SXM753S00AvM5NpmY9E--41" value="(1-p) chance" style="edgeLabel;html=1;align=center;verticalAlign=middle;resizable=0;points=[];" vertex="1" connectable="0" parent="SXM753S00AvM5NpmY9E--27">
          <mxGeometry x="-0.1452" relative="1" as="geometry">
            <mxPoint as="offset" />
          </mxGeometry>
        </mxCell>
        <mxCell id="SXM753S00AvM5NpmY9E--28" value="" style="endArrow=classic;html=1;rounded=0;" edge="1" parent="1" source="SXM753S00AvM5NpmY9E--20" target="SXM753S00AvM5NpmY9E--42">
          <mxGeometry width="50" height="50" relative="1" as="geometry">
            <mxPoint x="745" y="461.875" as="sourcePoint" />
            <mxPoint x="640" y="490" as="targetPoint" />
          </mxGeometry>
        </mxCell>
        <mxCell id="SXM753S00AvM5NpmY9E--43" value="(1-p) chance" style="edgeLabel;html=1;align=center;verticalAlign=middle;resizable=0;points=[];" vertex="1" connectable="0" parent="SXM753S00AvM5NpmY9E--28">
          <mxGeometry x="0.3793" y="-1" relative="1" as="geometry">
            <mxPoint x="-20" y="-4" as="offset" />
          </mxGeometry>
        </mxCell>
        <mxCell id="SXM753S00AvM5NpmY9E--29" value="" style="curved=1;endArrow=classic;html=1;rounded=0;fillColor=#dae8fc;strokeColor=#6c8ebf;" edge="1" parent="1" source="SXM753S00AvM5NpmY9E--21">
          <mxGeometry width="50" height="50" relative="1" as="geometry">
            <mxPoint x="880" y="380" as="sourcePoint" />
            <mxPoint x="680" y="330" as="targetPoint" />
            <Array as="points">
              <mxPoint x="680" y="190" />
              <mxPoint x="660" y="260" />
            </Array>
          </mxGeometry>
        </mxCell>
        <mxCell id="SXM753S00AvM5NpmY9E--32" value="" style="curved=1;endArrow=classic;html=1;rounded=0;fillColor=#dae8fc;strokeColor=#6c8ebf;" edge="1" parent="1" source="SXM753S00AvM5NpmY9E--21">
          <mxGeometry width="50" height="50" relative="1" as="geometry">
            <mxPoint x="780" y="195" as="sourcePoint" />
            <mxPoint x="680" y="420" as="targetPoint" />
            <Array as="points">
              <mxPoint x="520" y="180" />
              <mxPoint x="520" y="450" />
            </Array>
          </mxGeometry>
        </mxCell>
        <mxCell id="SXM753S00AvM5NpmY9E--35" value="" style="curved=1;endArrow=classic;html=1;rounded=0;" edge="1" parent="1" source="SXM753S00AvM5NpmY9E--22" target="SXM753S00AvM5NpmY9E--20">
          <mxGeometry width="50" height="50" relative="1" as="geometry">
            <mxPoint x="740" y="370" as="sourcePoint" />
            <mxPoint x="790" y="320" as="targetPoint" />
            <Array as="points">
              <mxPoint x="670" y="250" />
              <mxPoint x="610" y="310" />
            </Array>
          </mxGeometry>
        </mxCell>
        <mxCell id="SXM753S00AvM5NpmY9E--36" value="p chance" style="edgeLabel;html=1;align=center;verticalAlign=middle;resizable=0;points=[];" vertex="1" connectable="0" parent="SXM753S00AvM5NpmY9E--35">
          <mxGeometry x="0.2776" y="2" relative="1" as="geometry">
            <mxPoint as="offset" />
          </mxGeometry>
        </mxCell>
        <mxCell id="SXM753S00AvM5NpmY9E--42" value="&lt;font color=&quot;#cc0000&quot;&gt;Random&amp;nbsp;&lt;/font&gt;&lt;div&gt;&lt;font color=&quot;#cc0000&quot;&gt;LLM User&lt;/font&gt;&lt;/div&gt;" style="shape=umlActor;verticalLabelPosition=bottom;verticalAlign=top;html=1;outlineConnect=0;fillColor=#a20025;fontColor=#ffffff;strokeColor=#6F0000;" vertex="1" parent="1">
          <mxGeometry x="750" y="435" width="30" height="60" as="geometry" />
        </mxCell>
        <mxCell id="SXM753S00AvM5NpmY9E--45" value="" style="curved=1;endArrow=classic;html=1;rounded=0;fillColor=#dae8fc;strokeColor=#6c8ebf;" edge="1" parent="1" source="SXM753S00AvM5NpmY9E--21">
          <mxGeometry width="50" height="50" relative="1" as="geometry">
            <mxPoint x="760" y="175" as="sourcePoint" />
            <mxPoint x="770" y="380" as="targetPoint" />
            <Array as="points">
              <mxPoint x="840" y="190" />
              <mxPoint x="840" y="320" />
            </Array>
          </mxGeometry>
        </mxCell>
        <mxCell id="SXM753S00AvM5NpmY9E--46" value="&lt;font style=&quot;font-size: 33px;&quot; color=&quot;#cc0000&quot;&gt;?&lt;/font&gt;" style="text;html=1;align=center;verticalAlign=middle;whiteSpace=wrap;rounded=0;" vertex="1" parent="1">
          <mxGeometry x="760" y="420" width="30" height="35" as="geometry" />
        </mxCell>
        <mxCell id="SXM753S00AvM5NpmY9E--47" value="&lt;b&gt;&lt;u&gt;&lt;font style=&quot;font-size: 24px;&quot;&gt;Round Robbin&lt;/font&gt;&lt;/u&gt;&lt;/b&gt;" style="text;html=1;align=center;verticalAlign=middle;whiteSpace=wrap;rounded=0;" vertex="1" parent="1">
          <mxGeometry x="102.5" y="50" width="185" height="30" as="geometry" />
        </mxCell>
        <mxCell id="SXM753S00AvM5NpmY9E--48" value="&lt;span style=&quot;font-size: 24px;&quot;&gt;&lt;b&gt;&lt;u&gt;Random Choice&lt;/u&gt;&lt;/b&gt;&lt;/span&gt;&lt;div&gt;&lt;span style=&quot;font-size: 24px;&quot;&gt;&lt;b&gt;&lt;u&gt;with response&lt;/u&gt;&lt;/b&gt;&lt;/span&gt;&lt;/div&gt;" style="text;html=1;align=center;verticalAlign=middle;whiteSpace=wrap;rounded=0;" vertex="1" parent="1">
          <mxGeometry x="620" y="25" width="225" height="80" as="geometry" />
        </mxCell>
      </root>
    </mxGraphModel>
  </diagram>
</mxfile>
